<svg width="28" height="28" viewBox="0 0 28 28" fill="none" xmlns="http://www.w3.org/2000/svg">
<path d="M2.67869 8.5189V19.5037C2.67869 20.2099 3.04354 20.8488 3.65162 21.2075L13.0381 26.6998C13.6351 27.0473 14.3759 27.0473 14.9729 26.6998L24.3594 21.2075C24.9564 20.86 25.3323 20.2099 25.3323 19.5037V8.5189C25.3323 7.81274 24.9675 7.17382 24.3594 6.81514L14.9729 1.32274C14.3759 0.975264 13.6351 0.975264 13.0381 1.32274L3.65162 6.81514C3.05459 7.16261 2.68975 7.81274 2.68975 8.5189H2.67869Z" fill="#213147"/>
<path d="M16.0453 16.141L14.7076 19.8624C14.6744 19.9632 14.6744 20.0753 14.7076 20.1874L17.0072 26.5877L19.6717 25.0297L16.4765 16.141C16.3991 15.9392 16.1227 15.9392 16.0453 16.141Z" fill="#12AAFF"/>
<path d="M18.7319 9.88612C18.6545 9.68436 18.3781 9.68436 18.3008 9.88612L16.963 13.6075C16.9298 13.7084 16.9298 13.8205 16.963 13.9326L20.7331 24.4129L23.3975 22.8549L18.7319 9.89733V9.88612Z" fill="#12AAFF"/>
<path d="M14 1.73739C14.0663 1.73739 14.1327 1.75981 14.188 1.79343L24.3373 7.73419C24.4589 7.80144 24.5253 7.93595 24.5253 8.07046V19.952C24.5253 20.0865 24.4479 20.221 24.3373 20.2882L14.188 26.229C14.1327 26.2626 14.0663 26.285 14 26.285C13.9337 26.285 13.8673 26.2626 13.812 26.229L3.66268 20.2882C3.54106 20.221 3.47473 20.0865 3.47473 19.952V8.05925C3.47473 7.92474 3.55212 7.79023 3.66268 7.72298L13.812 1.78223C13.8673 1.7486 13.9337 1.72618 14 1.72618V1.73739ZM14 0C13.6352 0 13.2814 0.0896717 12.9497 0.280224L2.80032 6.22098C2.14801 6.60208 1.75 7.29704 1.75 8.05925V19.9408C1.75 20.703 2.14801 21.3979 2.80032 21.779L12.9497 27.7198C13.2703 27.9103 13.6352 28 14 28C14.3648 28 14.7186 27.9103 15.0503 27.7198L25.1997 21.779C25.852 21.3979 26.25 20.703 26.25 19.9408V8.05925C26.25 7.29704 25.852 6.60208 25.1997 6.22098L15.0393 0.280224C14.7186 0.0896717 14.3538 0 13.9889 0H14Z" fill="#9DCCED"/>
<path d="M7.278 24.4242L8.21776 21.8237L10.0973 23.4042L8.33937 25.0407L7.278 24.4242Z" fill="#213147"/>
<path d="M13.1376 7.21842H10.5616C10.3737 7.21842 10.1968 7.34172 10.1304 7.52107L4.61351 22.8549L7.27799 24.413L13.3588 7.52107C13.414 7.36414 13.3035 7.20721 13.1487 7.20721L13.1376 7.21842Z" fill="white"/>
<path d="M17.6484 7.21842H15.0724C14.8845 7.21842 14.7076 7.34172 14.6412 7.52107L8.33933 25.0295L11.0038 26.5875L17.8585 7.52107C17.9138 7.36414 17.8032 7.20721 17.6484 7.20721V7.21842Z" fill="white"/>
</svg>
