<svg width="18" height="18" viewBox="0 0 18 18" fill="none" xmlns="http://www.w3.org/2000/svg">
<path d="M17.7554 13.9493C17.5449 14.324 17.2301 14.6138 16.8443 14.7873L10.7692 17.6078C10.207 17.869 9.60419 18 9.00047 18C8.39674 18 7.79303 17.869 7.23084 17.6078L1.14836 14.7836C0.770798 14.6138 0.455114 14.3249 0.244642 13.9493C0.0572473 13.6161 0.176325 13.1943 0.510496 13.0069C0.842821 12.8214 1.26561 12.9386 1.453 13.2727C1.51854 13.39 1.60716 13.4721 1.72348 13.5238L7.81518 16.3517C8.55829 16.6968 9.44356 16.6968 10.1858 16.3517L16.2691 13.5275C16.3938 13.4712 16.4824 13.389 16.5479 13.2718C16.7344 12.9377 17.1563 12.8196 17.4904 13.006C17.8237 13.1943 17.9428 13.6161 17.7554 13.9493ZM17.4904 9.01707C17.1563 8.83063 16.7344 8.94787 16.5479 9.2829C16.4824 9.40011 16.3938 9.48223 16.2691 9.53853L10.1858 12.3627C9.44356 12.7079 8.55829 12.7079 7.81518 12.3627L1.72348 9.53484C1.60809 9.48315 1.51947 9.40101 1.45393 9.2838C1.26654 8.94969 0.843723 8.83249 0.511398 9.018C0.17815 9.20535 0.0590719 9.62713 0.245543 9.96031C0.456015 10.3359 0.770805 10.6248 1.14929 10.7947L7.23177 13.6188C7.79395 13.88 8.39767 14.0111 9.00139 14.0111C9.60512 14.0111 10.2079 13.88 10.7701 13.6188L16.8452 10.7984C17.231 10.6248 17.5467 10.3359 17.7572 9.96031C17.9428 9.62528 17.8237 9.2035 17.4904 9.01707ZM0 5.01153C0 4.22796 0.441241 3.53762 1.15205 3.20813L7.23177 0.390402C8.35522 -0.130134 9.64389 -0.130134 10.7683 0.390402L16.848 3.20813C17.5588 3.53762 18 4.22888 18 5.01153C18 5.79418 17.5588 6.48547 16.848 6.81495L10.7683 9.63269C10.207 9.89295 9.60326 10.0231 8.99954 10.0231C8.39581 10.0231 7.79303 9.89295 7.23084 9.63269L1.15114 6.81495C0.441262 6.48547 0 5.7951 0 5.01153ZM1.38469 5.01153C1.38469 5.10198 1.40961 5.40839 1.73455 5.55975L7.81425 8.37748C8.56844 8.72727 9.43341 8.72635 10.1858 8.37748L16.2655 5.55975C16.5904 5.40931 16.6153 5.10198 16.6153 5.01153C16.6153 4.92108 16.5904 4.61467 16.2655 4.46331L10.1858 1.64558C9.80912 1.47115 9.40386 1.38347 8.99954 1.38347C8.59521 1.38347 8.19088 1.47115 7.81332 1.64558L1.73362 4.46331C1.4096 4.61467 1.38469 4.92108 1.38469 5.01153Z" fill="#0094FF"/>
</svg>
