<svg width="18" height="18" viewBox="0 0 18 18" fill="none" xmlns="http://www.w3.org/2000/svg">
<path d="M14.8846 3.69231H6.80769C4.79815 3.69231 3.69231 4.79815 3.69231 6.80769V14.8846C3.69231 16.8942 4.79815 18 6.80769 18H14.8846C16.8942 18 18 16.8942 18 14.8846V6.80769C18 4.79815 16.8942 3.69231 14.8846 3.69231ZM16.6154 14.8846C16.6154 16.1142 16.1142 16.6154 14.8846 16.6154H6.80769C5.57815 16.6154 5.07692 16.1142 5.07692 14.8846V6.80769C5.07692 5.57815 5.57815 5.07692 6.80769 5.07692H14.8846C16.1142 5.07692 16.6154 5.57815 16.6154 6.80769V14.8846ZM1.38462 3.11076V11.1969C1.38462 12.3028 1.83054 12.5751 1.97731 12.6655C2.30408 12.8649 2.40544 13.2914 2.20605 13.6172C2.07498 13.8305 1.84802 13.9477 1.61448 13.9477C1.49171 13.9477 1.36607 13.9145 1.25346 13.8462C0.421763 13.3366 0 12.4459 0 11.1969V3.11076C0 1.13353 1.13457 0 3.11088 0H11.1968C12.7522 0 13.4954 0.682127 13.8462 1.25351C14.0455 1.57936 13.943 2.00583 13.6172 2.20521C13.2904 2.40552 12.8658 2.30215 12.6655 1.9763C12.576 1.82953 12.3027 1.38371 11.1968 1.38371H3.11088C1.88503 1.38464 1.38462 1.88492 1.38462 3.11076Z" fill="#0094FF"/>
</svg>
