<svg width="18" height="18" viewBox="0 0 18 18" fill="none" xmlns="http://www.w3.org/2000/svg">
<path d="M15.2308 3.73569V3.46154C15.2308 1.22954 14.0012 0 11.7692 0H2.53846C1.13815 0 0 1.13815 0 2.53846V14.5385C0 16.7705 1.22954 18 3.46154 18H14.5385C16.7705 18 18 16.7705 18 14.5385V7.15385C18 5.16462 17.0234 3.972 15.2308 3.73569ZM16.6154 12.4615H13.1538C12.2631 12.4615 11.5385 11.7369 11.5385 10.8462C11.5385 9.95538 12.2631 9.23077 13.1538 9.23077H16.6154V12.4615ZM2.53846 1.38462H11.7692C13.2249 1.38462 13.8462 2.00585 13.8462 3.46154V3.69231H2.53846C1.90246 3.69231 1.38462 3.17446 1.38462 2.53846C1.38462 1.90246 1.90246 1.38462 2.53846 1.38462ZM14.5385 16.6154H3.46154C2.00585 16.6154 1.38462 15.9942 1.38462 14.5385V4.79905C1.73077 4.97628 2.12308 5.07692 2.53846 5.07692H14.5385C15.9942 5.07692 16.6154 5.69815 16.6154 7.15385V7.84615H13.1538C11.4997 7.84615 10.1538 9.192 10.1538 10.8462C10.1538 12.5003 11.4997 13.8462 13.1538 13.8462H16.6154V14.5385C16.6154 15.9942 15.9942 16.6154 14.5385 16.6154ZM13.6246 9.92308H13.6339C14.1443 9.92308 14.5569 10.3366 14.5569 10.8462C14.5569 11.3557 14.1443 11.7692 13.6339 11.7692C13.1243 11.7692 12.7062 11.3557 12.7062 10.8462C12.7062 10.3366 13.1151 9.92308 13.6246 9.92308Z" fill="#0094FF"/>
</svg>
