<svg width="24" height="24" viewBox="0 0 24 24" fill="none" xmlns="http://www.w3.org/2000/svg">
<path d="M1.62045 10.163L8.52563 0L12.001 5.14882L8.47645 10.2994H1.6907C1.67529 10.2991 1.66024 10.2946 1.64711 10.2864C1.63399 10.2781 1.62328 10.2664 1.6161 10.2525C1.60893 10.2385 1.60554 10.2229 1.60631 10.2071C1.60707 10.1914 1.61196 10.1762 1.62045 10.163Z" fill="#7E49FC"/>
<path d="M22.3799 10.163L15.4748 0L12.0011 5.14882L15.5239 10.2994H22.3097C22.3251 10.2991 22.3401 10.2946 22.3533 10.2864C22.3664 10.2781 22.3771 10.2664 22.3843 10.2525C22.3915 10.2385 22.3948 10.2229 22.3941 10.2071C22.3933 10.1914 22.3884 10.1762 22.3799 10.163Z" fill="#7E49FC"/>
<path d="M22.4991 11.6309C22.5171 13.0515 22.2588 14.4617 21.7393 15.7795C21.2197 17.0974 20.4492 18.2967 19.4725 19.3078C18.4958 20.3189 17.3323 21.1217 16.0495 21.6697C14.7668 22.2176 13.3903 22.4998 12 22.4998C10.6097 22.4998 9.23323 22.2176 7.95049 21.6697C6.66775 21.1217 5.50425 20.3189 4.52754 19.3078C3.55081 18.2967 2.78031 17.0974 2.26075 15.7795C1.74118 14.4617 1.4829 13.0515 1.50088 11.6309H8.17425C8.16334 12.1509 8.25412 12.6678 8.44132 13.1515C8.6285 13.6352 8.90831 14.0758 9.2643 14.4474C9.62032 14.8192 10.0454 15.1145 10.5145 15.3161C10.9837 15.5177 11.4875 15.6215 11.9965 15.6215C12.5054 15.6215 13.0093 15.5177 13.4785 15.3161C13.9476 15.1145 14.3727 14.8192 14.7287 14.4474C15.0847 14.0758 15.3645 13.6352 15.5517 13.1515C15.7389 12.6678 15.8297 12.1509 15.8187 11.6309H22.4991Z" fill="#0066FF"/>
</svg>
