<svg width="28" height="28" viewBox="0 0 28 28" fill="none" xmlns="http://www.w3.org/2000/svg">
<g clip-path="url(#clip0_4_1937)">
<path d="M17.8889 0H10.1111C4.5269 0 0 4.5269 0 10.1111V17.8889C0 23.4731 4.5269 28 10.1111 28H17.8889C23.4731 28 28 23.4731 28 17.8889V10.1111C28 4.5269 23.4731 0 17.8889 0Z" fill="#75FB6E"/>
<path d="M11.8987 7.31318V7.28581L12.0284 7.17401H14.0267V6.22241H12.0284L11.7299 6.50551V6.90042L11.5895 7.01223H11.5681C11.6847 7.10739 11.787 7.21444 11.8987 7.31318Z" fill="#111111"/>
<path d="M11.6222 6.99872H11.2272L10.9584 7.283V7.66245L11.2272 7.94552H11.6222L11.9053 7.66245V7.283L11.6222 6.99872Z" fill="#111111"/>
<path d="M12.9313 12.6042H12.5363L12.2675 12.8885V13.8783L12.5363 14.1615H12.9313L13.2144 13.8783V12.8885L12.9313 12.6042Z" fill="#111111"/>
<path d="M11.6128 14.1824H11.2178L10.949 14.4655V14.8449L11.2178 15.1292H11.6128L11.8958 14.8449V14.4655L11.6128 14.1824Z" fill="#111111"/>
<path d="M16.7667 14.1824H16.3718L16.1042 14.4655V14.8449L16.3718 15.1292H16.7667L17.051 14.8449V14.4655L16.7667 14.1824Z" fill="#111111"/>
<path d="M11.2656 7.60712L10.9825 7.64043L10.8992 7.74629L10.5067 7.79146L9.55509 8.99647L9.60144 9.38901L9.49084 9.52341L9.51822 9.76841L9.82506 9.73271L9.91077 9.63285L10.3032 9.58766L11.2442 8.38389L11.1978 7.99609L11.2977 7.88067L11.2656 7.60712Z" fill="#111111"/>
<path d="M9.50716 12.3367L9.79144 12.37L9.87474 12.4759L10.266 12.5211L11.2176 13.7261L11.1713 14.1186L11.2831 14.253L11.2545 14.498L10.9477 14.4623L10.862 14.3625L10.4695 14.3173L9.52979 13.1135L9.57498 12.7257L9.47504 12.6104L9.50716 12.3367Z" fill="#111111"/>
<path d="M9.71431 9.32251L9.50968 9.52115L9.50734 9.65555L9.22423 9.93034L9.2016 12.1785L9.47755 12.4616L9.4704 12.6376L9.64291 12.8136L9.86419 12.5996L9.87127 12.4675L10.1544 12.1927L10.1687 9.95173L9.89748 9.6722L9.9058 9.51999L9.71431 9.32251Z" fill="#111111"/>
<path d="M16.1111 7.31318V7.28581L15.9814 7.17401H13.9795V6.22241H15.9778L16.2764 6.50551V6.90042L16.4167 7.01223H16.4382C16.3252 7.10739 16.2228 7.21444 16.1111 7.31318Z" fill="#111111"/>
<path d="M16.3873 6.99872H16.7822L17.051 7.283V7.66245L16.7822 7.94552H16.3873L16.1042 7.66245V7.283L16.3873 6.99872Z" fill="#111111"/>
<path d="M15.0795 12.611H15.4744L15.7433 12.8953V13.8796L15.4744 14.1627H15.0795L14.7964 13.8796V12.8953L15.0795 12.611Z" fill="#111111"/>
<path d="M16.7439 7.60712L17.027 7.64043L17.1114 7.74629L17.5027 7.79146L18.4543 8.99647L18.4079 9.38901L18.5198 9.52341L18.4912 9.76841L18.1843 9.73271L18.0987 9.63285L17.7061 9.58766L16.7665 8.38389L16.8117 7.99609L16.7117 7.88067L16.7439 7.60712Z" fill="#111111"/>
<path d="M18.5026 12.3367L18.2195 12.37L18.1362 12.4759L17.7436 12.5211L16.7933 13.7261L16.8385 14.1186L16.7267 14.253L16.7552 14.498L17.0621 14.4623L17.1477 14.3625L17.5402 14.3173L18.4811 13.1135L18.4359 12.7257L18.5347 12.6104L18.5026 12.3367Z" fill="#111111"/>
<path d="M18.2953 9.32251L18.5011 9.52115L18.5023 9.65555L18.7854 9.93034L18.808 12.1785L18.532 12.4616L18.5392 12.6376L18.3679 12.8136L18.1466 12.5996L18.1383 12.4675L17.8552 12.1927L17.8409 9.95173L18.1122 9.6722L18.1038 9.51999L18.2953 9.32251Z" fill="#111111"/>
<path d="M8.47253 13.3865H8.07758L7.80878 13.6708V14.0502L8.07758 14.3333H8.47253L8.75564 14.0502V13.6708L8.47253 13.3865Z" fill="#111111"/>
<path d="M8.31084 14.0731L8.10621 14.2729L8.10388 14.4061L7.82077 14.6821L7.79938 16.4449L8.07409 16.728L8.06818 16.9028L8.24069 17.0456L8.46072 16.866L8.46788 16.7339L8.75091 16.4591L8.76639 14.7023L8.49401 14.4227L8.5035 14.2705L8.31084 14.0731Z" fill="#111111"/>
<path d="M5.95667 12.2319L6.00544 12.6244L7.40071 13.7033L7.79322 13.6533L7.92887 13.764L8.1727 13.733L8.13459 13.4273L8.03472 13.3429L7.98596 12.9503L6.59185 11.8821L6.20527 11.9309L5.95667 12.2319Z" fill="#111111"/>
<path d="M11.6283 15.2686L11.6211 15.1211L11.4249 14.9284L11.2239 15.133L11.2251 15.2674L10.9991 15.497L10.9491 15.547V15.5481V15.5493V17.3145V17.5167L10.8278 17.6333H8.85801L8.74142 17.5167V17.1218L8.46189 16.8435H8.06701L7.79938 17.1218V17.5167L8.06701 17.7856H8.46189L8.58913 17.9117V18.3065L8.85801 18.5754H10.8278L11.1061 18.3065V17.9117L11.2323 17.7856H11.6283L11.8959 17.5167V17.3811V15.547L11.6283 15.2686Z" fill="#111111"/>
<path d="M19.5276 13.3865H19.9225L20.1913 13.6708V14.0502L19.9225 14.3333H19.5276L19.2444 14.0502V13.6708L19.5276 13.3865Z" fill="#111111"/>
<path d="M19.6886 14.0731L19.8944 14.2729L19.8967 14.4061L20.1798 14.6821L20.2012 16.4449L19.9265 16.728L19.9324 16.9028L19.7599 17.0456L19.5399 16.866L19.5327 16.7339L19.2484 16.4591L19.2342 14.7023L19.5066 14.4227L19.4971 14.2705L19.6886 14.0731Z" fill="#111111"/>
<path d="M22.0431 12.2319L21.9932 12.6244L20.5991 13.7033L20.2066 13.6533L20.0709 13.764L19.8259 13.733L19.8652 13.4273L19.9651 13.3429L20.0138 12.9503L21.4079 11.8821L21.7946 11.9309L22.0431 12.2319Z" fill="#111111"/>
<path d="M16.3718 15.2686L16.3789 15.1211L16.5752 14.9284L16.7762 15.133L16.7739 15.2674L17.001 15.497L17.051 15.547V15.5481V15.5493V17.3145V17.5167L17.1723 17.6333H19.1421L19.2587 17.5167V17.1218L19.5371 16.8435H19.9319L20.2007 17.1218V17.5167L19.9319 17.7856H19.5371L19.4109 17.9117V18.3065L19.1421 18.5754H17.1723L16.894 18.3065V17.9117L16.7667 17.7856H16.3718L16.1042 17.5167V17.3811V15.547L16.3718 15.2686Z" fill="#111111"/>
<path d="M13.4579 18.38L13.4543 18.3777L13.4591 17.9922L13.1832 17.7104L12.7882 17.7068L12.5063 17.9827L12.5028 18.367L12.385 18.493L11.9948 18.4895L10.1178 20.3237L10.1142 20.7186L10.3902 20.9898L10.7851 20.9945L12.6621 19.1591L12.6657 18.7737L12.7787 18.6488L13.1545 18.6524L13.4579 18.38Z" fill="#111111"/>
<path d="M10.1137 20.7172L9.99002 20.8349H8.01898L7.90363 20.7183V20.3235L7.6241 20.0451H7.22919L6.96155 20.3235V20.7183L7.22919 20.986H7.6241L7.75137 21.1133V21.5082L8.01898 21.777H9.99002L10.2683 21.5082V21.1133L10.3944 20.986H10.3992L10.1137 20.7172Z" fill="#111111"/>
<path d="M14.5733 18.38L14.5757 18.3777L14.5721 17.9922L14.848 17.7104L15.243 17.7068L15.5237 17.9827L15.5273 18.367L15.645 18.493L16.0352 18.4895L17.9122 20.3237L17.9169 20.7186L17.641 20.9898L17.2461 20.9945L15.3691 19.1591L15.3643 18.7737L15.2525 18.6488L14.8754 18.6524L14.5733 18.38Z" fill="#111111"/>
<path d="M17.917 20.7172L18.0408 20.8349H20.0105L20.1271 20.7183V20.3235L20.4055 20.0451H20.8003L21.0692 20.3235V20.7183L20.8003 20.986H20.4055L20.2794 21.1133V21.5082L20.0105 21.777H18.0408L17.7624 21.5082V21.1133L17.6351 20.986H17.6316L17.917 20.7172Z" fill="#111111"/>
</g>
<defs>
<clipPath id="clip0_4_1937">
<rect width="28" height="28" fill="white"/>
</clipPath>
</defs>
</svg>
