<svg width="24" height="24" viewBox="0 0 24 24" fill="none" xmlns="http://www.w3.org/2000/svg">
<g clip-path="url(#clip0_4_2948)">
<path d="M12.0012 23.9962C5.44124 24.0154 -0.177958 18.6266 0.00124205 11.6442C0.154842 5.41699 5.31324 -0.189405 12.3916 0.00259471C18.574 0.168995 24.206 5.30179 23.9884 12.4378C23.8028 18.6586 18.6892 23.977 12.0012 23.9962ZM12.814 13.033C13.1596 13.3338 13.55 13.5898 13.8444 13.9546C14.3244 14.5498 14.5612 15.2026 14.382 15.977C14.1196 17.0906 12.9292 18.2106 11.7004 18.281C11.0348 18.3194 10.4012 18.1978 9.85084 17.8202C8.72444 17.0458 8.25084 15.5738 8.67324 14.2746C8.82684 13.8074 8.82684 13.8074 9.25564 14.0058C9.26204 14.0122 9.26844 14.0122 9.27484 14.0186C9.42844 14.1082 9.46684 14.0442 9.46044 13.8906C9.43484 13.4938 9.44124 13.0906 9.39644 12.6938C9.35164 12.3162 9.37724 11.9322 9.29404 11.561C9.21724 11.5546 9.17244 11.6058 9.12124 11.6378C8.56444 12.0026 8.01404 12.3674 7.46364 12.7322C7.13724 12.9498 7.13724 12.9562 7.50204 13.129C7.66204 13.2058 7.70684 13.2698 7.62364 13.449C7.26524 14.2426 7.16284 15.0746 7.30364 15.9322C7.51484 17.1994 8.11644 18.217 9.21084 18.9274C10.1324 19.529 11.1564 19.6762 12.2188 19.5034C13.4476 19.2986 14.3628 18.5882 15.0476 17.577C16.1036 16.009 15.9116 14.2362 14.5996 12.8794C13.6972 11.9514 12.5068 11.5034 11.4316 10.8634C11.1884 10.6714 10.9452 10.473 10.7404 10.2362C10.1964 9.61539 9.95324 8.9114 10.1452 8.0858C10.2668 7.561 10.542 7.113 10.894 6.7098C12.0524 5.3786 13.646 5.3146 14.8492 6.2682C15.6044 6.8698 16.3276 8.1242 15.758 9.6474C15.5852 10.1082 15.598 10.1146 15.1628 9.9226C15.1564 9.91619 15.15 9.91619 15.1436 9.90979C15.0284 9.83939 14.99 9.865 14.9964 9.9994C15.022 10.3962 15.0348 10.7994 15.0604 11.1962C15.086 11.5994 15.1308 12.0026 15.1692 12.4314C15.7708 12.0346 16.3532 11.6506 16.9292 11.2666C17.0508 11.1834 17.262 11.1386 17.2556 10.9978C17.2492 10.889 17.0316 10.8442 16.9036 10.793C16.6988 10.7162 16.6796 10.6138 16.7692 10.4154C17.3452 9.0906 17.3708 7.77219 16.622 6.50499C15.7516 5.02659 14.446 4.32899 12.7244 4.42499C11.854 4.46979 11.1244 4.8602 10.4844 5.41059C9.60124 6.16579 9.00604 7.09379 8.88444 8.26499C8.74364 9.60259 9.31964 10.6522 10.2988 11.5162C11.0284 12.169 11.95 12.5466 12.814 13.033Z" fill="#E9EBFE"/>
<path d="M11.412 10.8504C12.4872 11.4904 13.684 11.9384 14.58 12.8664C15.892 14.2232 16.084 15.996 15.028 17.564C14.3432 18.5752 13.428 19.2856 12.1992 19.4904C11.1368 19.6632 10.1192 19.5096 9.19124 18.9144C8.10324 18.204 7.49524 17.1864 7.28404 15.9192C7.14324 15.0616 7.24564 14.2296 7.60404 13.436C7.68724 13.2568 7.64244 13.1928 7.48244 13.116C7.11764 12.9432 7.12404 12.9368 7.44404 12.7192C7.99444 12.3544 8.55124 11.9896 9.10164 11.6248C9.15284 11.5928 9.19764 11.5352 9.27444 11.548C9.35764 11.9192 9.33844 12.3032 9.37684 12.6808C9.42164 13.0776 9.42164 13.4744 9.44084 13.8776C9.44724 14.0312 9.40884 14.0952 9.25524 14.0056C9.24884 13.9992 9.24244 13.9992 9.23604 13.9928C8.80724 13.7944 8.80724 13.7944 8.65364 14.2616C8.23124 15.5672 8.70484 17.0328 9.83124 17.8072C10.3816 18.1848 11.0152 18.3064 11.6808 18.268C12.916 18.204 14.1 17.0776 14.3624 15.964C14.548 15.1896 14.3112 14.5368 13.8248 13.9416C13.5304 13.5768 13.14 13.3208 12.7944 13.02C12.6728 12.636 12.3912 12.3544 12.1864 12.028C11.9496 11.6376 11.6232 11.2856 11.412 10.8504Z" fill="#8C8EF9"/>
<path d="M11.4121 10.8501C11.6233 11.2789 11.9497 11.6373 12.2057 12.0405C12.4169 12.3669 12.6921 12.6485 12.8137 13.0325C11.9497 12.5461 11.0281 12.1749 10.2729 11.5093C9.29365 10.6453 8.71765 9.59573 8.85845 8.25813C8.98005 7.08693 9.57525 6.15253 10.4585 5.40373C11.1049 4.85333 11.8345 4.46933 12.6985 4.41813C14.4201 4.32213 15.7257 5.02613 16.5961 6.49813C17.3449 7.76533 17.3257 9.08373 16.7433 10.4085C16.6537 10.6069 16.6729 10.7093 16.8777 10.7861C17.0057 10.8373 17.2233 10.8821 17.2297 10.9909C17.2361 11.1317 17.0249 11.1829 16.9033 11.2597C16.3273 11.6437 15.7513 12.0277 15.1433 12.4245C15.1049 11.9957 15.0601 11.5925 15.0345 11.1893C15.0089 10.7925 14.9961 10.3893 14.9705 9.99253C14.9641 9.85813 15.0025 9.83253 15.1177 9.90293C15.1241 9.90933 15.1305 9.90933 15.1369 9.91573C15.5721 10.1077 15.5593 10.1013 15.7321 9.64053C16.3017 8.11733 15.5785 6.86293 14.8233 6.26133C13.6201 5.30133 12.0265 5.37173 10.8681 6.70293C10.5161 7.10613 10.2409 7.55413 10.1193 8.07893C9.92725 8.90453 10.1705 9.60853 10.7145 10.2293C10.9257 10.4661 11.1689 10.6581 11.4121 10.8501Z" fill="#51559C"/>
</g>
<defs>
<clipPath id="clip0_4_2948">
<rect width="24" height="24" fill="white"/>
</clipPath>
</defs>
</svg>
